<svg xmlns="http://www.w3.org/2000/svg" xmlns:xlink="http://www.w3.org/1999/xlink" width="1080" zoomAndPan="magnify" viewBox="0 0 810 809.999993" height="1080" preserveAspectRatio="xMidYMid meet" version="1.0"><defs><clipPath id="id1"><path d="M 275.5 19.996094 L 671.394531 19.996094 L 671.394531 601.609375 L 275.5 601.609375 Z M 275.5 19.996094 " clip-rule="nonzero"/></clipPath><clipPath id="id2"><path d="M 176.726562 490.964844 L 389.242188 490.964844 L 389.242188 790.242188 L 176.726562 790.242188 Z M 176.726562 490.964844 " clip-rule="nonzero"/></clipPath></defs><path fill="#f4b78e" d="M 526.648438 652.335938 L 522.226562 660.019531 C 510.667969 680.074219 491.753906 692.054688 471.535156 692.054688 C 451.320312 692.054688 432.375 680.074219 420.816406 660.019531 L 416.398438 652.335938 L 427.121094 647.207031 L 427.121094 537.058594 L 515.957031 537.058594 L 515.957031 647.207031 L 526.648438 652.335938 " fill-opacity="1" fill-rule="nonzero"/><path fill="#f4b78e" d="M 658.902344 265.214844 L 658.902344 374.816406 C 658.902344 444.320312 629.777344 510.671875 578.523438 557.695312 L 570.710938 564.824219 C 544.949219 588.402344 511.367188 601.492188 476.488281 601.492188 L 466.621094 601.492188 C 431.742188 601.492188 398.097656 588.402344 372.398438 564.824219 L 364.585938 557.695312 C 313.328125 510.671875 284.136719 444.320312 284.136719 374.816406 L 284.136719 265.214844 C 284.136719 238.070312 289.960938 212.230469 300.378906 188.925781 C 331.488281 166.648438 396.453125 151.292969 471.554688 151.292969 C 546.660156 151.292969 611.550781 166.648438 642.660156 188.925781 C 653.078125 212.230469 658.902344 238.070312 658.902344 265.214844 " fill-opacity="1" fill-rule="nonzero"/><path fill="#eba17d" d="M 490.398438 429.238281 C 488.71875 431.519531 486.402344 433.152344 483.921875 434.476562 C 482.652344 435.0625 481.347656 435.675781 479.964844 436.0625 C 478.585938 436.421875 477.167969 436.777344 475.707031 436.9375 C 472.796875 437.273438 469.734375 437.09375 466.832031 436.265625 C 465.347656 435.945312 463.96875 435.328125 462.585938 434.726562 C 461.195312 434.132812 459.984375 433.242188 458.6875 432.496094 L 455.832031 430.832031 L 456.605469 427.4375 C 458.230469 420.300781 460.121094 413.226562 462.355469 406.214844 C 462.867188 404.453125 463.488281 402.714844 464.085938 400.972656 C 464.699219 399.230469 465.261719 397.484375 465.957031 395.757812 C 467.265625 392.292969 468.648438 388.847656 470.308594 385.457031 C 470.480469 389.226562 470.378906 392.941406 470.199219 396.640625 C 470.148438 398.496094 469.96875 400.328125 469.832031 402.167969 C 469.691406 404.007812 469.566406 405.851562 469.332031 407.664062 C 468.585938 414.984375 467.503906 422.230469 466.152344 429.417969 L 464.066406 424.363281 C 465.003906 424.828125 465.875 425.425781 466.824219 425.832031 C 467.75 426.289062 468.695312 426.703125 469.667969 427.046875 C 470.617188 427.464844 471.636719 427.664062 472.636719 428.027344 C 473.671875 428.210938 474.699219 428.5625 475.789062 428.691406 C 476.863281 428.957031 477.988281 429.054688 479.128906 429.160156 C 480.269531 429.242188 481.457031 429.378906 482.664062 429.382812 C 483.863281 429.378906 485.128906 429.460938 486.394531 429.382812 C 487.695312 429.390625 488.992188 429.300781 490.398438 429.238281 " fill-opacity="1" fill-rule="nonzero"/><g clip-path="url(#id1)"><path fill="#302c28" d="M 632.523438 443.15625 C 629.4375 451.929688 619.230469 455.90625 611.003906 451.585938 L 591.613281 441.441406 C 579.550781 435.136719 565.914062 432.601562 552.347656 434.039062 L 471.554688 443.085938 L 391.519531 434.039062 C 378.019531 432.601562 364.378906 435.136719 352.320312 441.441406 L 332.929688 451.585938 C 324.636719 455.90625 314.496094 451.929688 311.34375 443.15625 L 309.960938 439.273438 C 293 391.574219 287.535156 340.425781 294.953125 290.347656 C 296.269531 281.472656 297.925781 273.039062 300.015625 265.625 C 305.164062 247.351562 343.023438 232.582031 349.695312 215 C 355.273438 200.300781 356.988281 196.03125 373.613281 187.894531 C 397.515625 176.183594 424.335938 208.429688 479.039062 204.789062 C 522.769531 201.875 563.558594 187.894531 580.484375 200.484375 C 615.207031 226.3125 623.253906 269.671875 633.796875 304.949219 C 635.199219 309.652344 637.484375 319.824219 639.953125 331.546875 C 647.78125 368.714844 645.21875 407.339844 632.527344 443.136719 C 632.527344 443.148438 632.523438 443.15625 632.523438 443.15625 Z M 564.132812 516.15625 C 556.320312 567.632812 510.890625 587.785156 471.96875 587.921875 L 471.554688 587.921875 C 432.632812 587.785156 387.132812 567.632812 379.320312 516.15625 C 373.632812 478.660156 385.214844 470.503906 391.996094 468.859375 C 392.066406 468.859375 392.066406 468.859375 392.066406 468.859375 C 392.40625 468.722656 392.75 468.65625 393.164062 468.585938 C 395.082031 468.3125 396.382812 468.515625 396.382812 468.515625 L 426.054688 471.945312 C 441.0625 473.726562 456.207031 471.945312 470.390625 466.871094 L 471.554688 466.460938 L 473.542969 466.871094 C 487.726562 471.945312 502.871094 473.726562 517.808594 471.945312 L 547.550781 468.515625 C 548.101562 468.449219 549.058594 468.449219 550.152344 468.585938 C 551.59375 468.65625 552.894531 469.066406 554.058594 469.75 C 554.539062 469.957031 554.882812 470.160156 555.292969 470.4375 C 561.734375 474.207031 568.792969 485.171875 564.132812 516.15625 Z M 671.394531 273.226562 C 671.394531 228.953125 666.261719 206.867188 657.851562 163.667969 C 650.5625 126.265625 633.320312 78.667969 595.332031 60.523438 C 576.488281 51.515625 553.976562 53.792969 533.011719 49.636719 C 511.953125 45.460938 496.902344 33.960938 476.652344 27.25 C 444.078125 16.449219 426.175781 17.085938 381.753906 33.351562 C 354.054688 43.488281 352.460938 61.472656 341.566406 87.683594 C 333.480469 107.136719 317.003906 108.675781 305.53125 126.117188 C 303.132812 129.75 300.902344 133.496094 298.914062 137.386719 C 288.402344 158.082031 283.925781 181.070312 283.273438 204.113281 C 282.675781 225.125 280.074219 245.074219 277.484375 265.867188 C 275.0625 285.265625 275.125 321.472656 276.402344 340.867188 C 277.503906 361.941406 282.121094 384.035156 285.726562 402.695312 C 286.671875 411.042969 288.035156 419.308594 289.808594 427.46875 C 289.8125 427.5 289.816406 427.535156 289.820312 427.566406 C 289.820312 427.566406 289.824219 427.566406 289.828125 427.5625 C 300.636719 477.183594 326.519531 522.773438 364.585938 557.695312 L 372.398438 564.824219 C 398.097656 588.402344 431.742188 601.492188 466.621094 601.492188 L 476.488281 601.492188 C 511.371094 601.492188 544.945312 588.402344 570.710938 564.824219 L 578.523438 557.695312 C 615.773438 523.523438 641.320312 479.140625 652.503906 430.761719 C 652.503906 430.769531 652.511719 430.78125 652.511719 430.792969 C 660.441406 404.113281 671.394531 367.910156 671.394531 273.226562 " fill-opacity="1" fill-rule="nonzero"/></g><path fill="#544b43" d="M 353.664062 242.746094 C 357.59375 238.527344 361.121094 235.402344 364.894531 232.800781 C 368.636719 230.222656 372.417969 228.128906 376.351562 226.410156 C 380.300781 224.707031 384.34375 223.308594 388.761719 222.332031 C 393.238281 221.40625 397.839844 220.617188 403.78125 220.910156 C 402.285156 226.585938 399.273438 230.972656 395.722656 234.535156 C 392.132812 238.054688 387.996094 240.875 383.492188 242.785156 C 378.996094 244.726562 374.179688 245.902344 369.167969 246.136719 C 364.179688 246.234375 358.863281 245.824219 353.664062 242.746094 " fill-opacity="1" fill-rule="nonzero"/><path fill="#544b43" d="M 542.226562 224.378906 C 548.394531 224.855469 553.363281 226.40625 558.066406 228.292969 C 562.710938 230.226562 566.960938 232.578125 570.921875 235.316406 C 574.882812 238.066406 578.5625 241.179688 581.996094 244.8125 C 585.386719 248.535156 588.640625 252.507812 591.351562 258.128906 C 585.246094 259.132812 579.753906 258.332031 574.683594 256.8125 C 569.621094 255.25 564.941406 252.949219 560.742188 249.992188 C 556.53125 247.054688 552.734375 243.527344 549.503906 239.371094 C 546.332031 235.167969 543.558594 230.449219 542.226562 224.378906 " fill-opacity="1" fill-rule="nonzero"/><path fill="#ffffff" d="M 452.921875 330.101562 C 452.921875 335.640625 452.445312 341.0625 451.433594 346.242188 C 451.3125 347.074219 451.132812 347.910156 450.957031 348.683594 C 450.179688 352.257812 449.226562 355.710938 448.097656 358.992188 C 447.5 360.597656 446.90625 362.148438 446.25 363.695312 C 440 378.464844 429.695312 390.199219 417.253906 396.632812 C 416.480469 397.050781 415.703125 397.410156 414.871094 397.761719 C 414.097656 398.121094 413.320312 398.480469 412.488281 398.777344 C 411.714844 399.132812 410.882812 399.371094 410.046875 399.671875 C 409.273438 399.96875 408.4375 400.207031 407.605469 400.445312 C 406.773438 400.625 405.9375 400.863281 405.042969 401.039062 C 404.210938 401.21875 403.378906 401.398438 402.484375 401.457031 C 401.769531 401.636719 401.054688 401.695312 400.28125 401.753906 C 399.328125 401.875 398.375 401.933594 397.425781 401.992188 C 396.710938 402.050781 396.054688 402.050781 395.339844 402.050781 C 363.542969 402.050781 337.757812 369.828125 337.757812 330.101562 C 337.757812 290.375 363.542969 258.148438 395.339844 258.148438 C 396.054688 258.148438 396.710938 258.148438 397.425781 258.207031 C 398.375 258.269531 399.328125 258.328125 400.28125 258.449219 C 401.054688 258.507812 401.769531 258.566406 402.484375 258.746094 C 403.378906 258.804688 404.210938 258.984375 405.042969 259.164062 C 405.9375 259.339844 406.773438 259.578125 407.605469 259.757812 C 408.4375 259.996094 409.273438 260.234375 410.046875 260.53125 C 410.882812 260.828125 411.714844 261.070312 412.488281 261.425781 C 412.84375 261.546875 413.140625 261.664062 413.441406 261.84375 L 413.5 261.84375 C 413.976562 262.023438 414.453125 262.199219 414.871094 262.4375 C 415.703125 262.796875 416.480469 263.15625 417.253906 263.574219 C 420.527344 265.238281 423.625 267.324219 426.601562 269.648438 L 426.601562 269.707031 C 434.757812 276.316406 441.546875 285.488281 446.128906 296.269531 C 446.546875 297.167969 446.90625 298.117188 447.261719 299.070312 C 447.5625 299.785156 447.800781 300.5 448.097656 301.214844 C 448.988281 303.777344 449.765625 306.398438 450.417969 309.136719 C 450.597656 309.730469 450.714844 310.265625 450.835938 310.863281 C 450.894531 311.101562 450.894531 311.28125 450.957031 311.519531 C 451.132812 312.292969 451.3125 313.125 451.433594 313.960938 C 452.445312 319.140625 452.921875 324.558594 452.921875 330.101562 " fill-opacity="1" fill-rule="nonzero"/><path fill="#544b43" d="M 428.75 354.554688 C 428.75 373.011719 413.792969 387.96875 395.339844 387.96875 C 376.890625 387.96875 361.933594 373.011719 361.933594 354.554688 C 361.933594 336.097656 376.890625 321.136719 395.339844 321.136719 C 413.792969 321.136719 428.75 336.097656 428.75 354.554688 " fill-opacity="1" fill-rule="nonzero"/><path fill="#302c28" d="M 411.503906 354.554688 C 411.503906 363.484375 404.265625 370.726562 395.339844 370.726562 C 386.410156 370.726562 379.171875 363.484375 379.171875 354.554688 C 379.171875 345.628906 386.410156 338.386719 395.339844 338.386719 C 404.265625 338.386719 411.503906 345.628906 411.503906 354.554688 " fill-opacity="1" fill-rule="nonzero"/><path fill="#ffffff" d="M 422.835938 326.664062 C 422.835938 333.136719 417.589844 338.386719 411.113281 338.386719 C 404.640625 338.386719 399.394531 333.136719 399.394531 326.664062 C 399.394531 320.1875 404.640625 314.941406 411.113281 314.941406 C 417.589844 314.941406 422.835938 320.1875 422.835938 326.664062 " fill-opacity="1" fill-rule="nonzero"/><path fill="#ffffff" d="M 409.886719 345.675781 C 409.886719 349.019531 407.179688 351.726562 403.839844 351.726562 C 400.5 351.726562 397.792969 349.019531 397.792969 345.675781 C 397.792969 342.335938 400.5 339.625 403.839844 339.625 C 407.179688 339.625 409.886719 342.335938 409.886719 345.675781 " fill-opacity="1" fill-rule="nonzero"/><path fill="#302c28" d="M 561.988281 485.90625 C 561.917969 498.734375 554.492188 515.121094 542.085938 529.554688 C 542.082031 529.605469 542.042969 529.605469 542.042969 529.652344 C 525.539062 548.945312 500.273438 564.886719 472.078125 564.730469 C 444.484375 564.574219 419.875 548.996094 403.585938 530.058594 C 403.507812 530.011719 403.464844 530.011719 403.464844 530.011719 C 390.617188 515.039062 382.976562 498.027344 383.050781 484.90625 C 383.113281 474.050781 388.398438 472.746094 397.445312 475.515625 C 413.371094 480.339844 440.945312 497.808594 472.449219 497.984375 C 507.253906 498.179688 537.546875 477.238281 552.339844 475.296875 C 558.546875 474.546875 562.039062 477.078125 561.988281 485.90625 " fill-opacity="1" fill-rule="nonzero"/><path fill="#ea2f38" d="M 421.71875 506.296875 C 461.207031 562.734375 496.011719 569.992188 524.101562 506.871094 L 421.71875 506.296875 " fill-opacity="1" fill-rule="nonzero"/><path fill="#fefefe" d="M 552.339844 475.296875 C 544.199219 504.113281 512.378906 525.492188 474.472656 525.277344 C 439.34375 525.078125 409.601562 506.363281 399.230469 480.605469 C 398.554688 478.921875 397.960938 477.246094 397.445312 475.515625 C 413.371094 480.339844 440.945312 497.808594 472.449219 497.984375 C 505.5625 498.171875 534.59375 479.242188 550.082031 475.730469 C 550.886719 475.539062 551.617188 475.394531 552.339844 475.296875 " fill-opacity="1" fill-rule="nonzero"/><path fill="#fefefe" d="M 542.082031 529.554688 C 542.082031 529.605469 542.039062 529.605469 542.039062 529.65625 C 541.109375 530.734375 540.175781 531.8125 539.203125 532.847656 C 539.082031 532.992188 538.960938 533.089844 538.839844 533.238281 C 522.382812 550.855469 498.5 564.882812 472.074219 564.730469 C 445.566406 564.582031 421.839844 550.242188 405.585938 532.292969 C 404.90625 531.597656 404.222656 530.804688 403.585938 530.058594 C 403.90625 530.210938 404.828125 530.5625 406.316406 531.0625 C 409.652344 532.265625 415.765625 534.324219 423.851562 536.441406 C 451.324219 543.699219 501.511719 551.773438 542.082031 529.554688 " fill-opacity="1" fill-rule="nonzero"/><path fill="#302c28" d="M 591.363281 360.683594 C 584.464844 357.398438 577.179688 354.988281 569.847656 352.820312 C 562.488281 350.730469 555.023438 348.976562 547.484375 347.605469 C 539.945312 346.253906 532.347656 345.1875 524.710938 344.5 C 517.082031 343.707031 509.410156 343.496094 501.746094 343.273438 L 503.597656 349.539062 C 507.019531 347.398438 510.371094 345.148438 513.757812 342.945312 L 524.035156 336.566406 C 527.503906 334.511719 530.925781 332.371094 534.417969 330.355469 C 537.929688 328.386719 541.40625 326.339844 544.949219 324.421875 C 552.003906 320.523438 559.183594 316.84375 566.523438 313.507812 C 573.855469 310.148438 581.324219 307.011719 589.210938 304.988281 C 581.019531 305.449219 573.046875 307.78125 565.257812 310.28125 C 561.363281 311.585938 557.539062 313.0625 553.71875 314.554688 C 549.9375 316.148438 546.171875 317.773438 542.472656 319.535156 C 535.007812 322.949219 527.84375 326.929688 520.679688 330.890625 L 510.160156 337.226562 C 506.714844 339.425781 503.234375 341.574219 499.828125 343.835938 L 490.742188 349.863281 L 501.679688 350.105469 C 505.4375 350.1875 509.195312 350.195312 512.957031 350.339844 C 516.707031 350.542969 520.472656 350.625 524.222656 350.878906 C 531.734375 351.242188 539.214844 352.050781 546.714844 352.789062 C 554.191406 353.699219 561.671875 354.6875 569.113281 356 C 576.5625 357.277344 583.988281 358.769531 591.363281 360.683594 " fill-opacity="1" fill-rule="nonzero"/><g clip-path="url(#id2)"><path fill="#eae0e1" d="M 389.160156 490.972656 L 389.160156 766.535156 C 389.160156 769.9375 388.441406 773.183594 387.160156 776.097656 C 383.484375 784.433594 375.152344 790.242188 365.457031 790.242188 L 201.757812 790.242188 C 188.664062 790.242188 178.054688 779.632812 178.054688 766.535156 L 178.054688 505.214844 C 180.636719 505.214844 176.753906 490.972656 176.753906 490.972656 L 389.160156 490.972656 " fill-opacity="1" fill-rule="nonzero"/></g><path fill="#f2a34e" d="M 204.964844 540.449219 L 204.964844 745.015625 C 204.964844 755.269531 213.25 763.582031 223.46875 763.582031 L 351.230469 763.582031 C 361.453125 763.582031 369.738281 755.269531 369.738281 745.015625 L 369.738281 529.292969 L 203.953125 529.292969 C 203.953125 529.292969 206.984375 540.449219 204.964844 540.449219 " fill-opacity="1" fill-rule="nonzero"/><path fill="#e8923d" d="M 253.824219 745.0625 L 225.960938 745.0625 C 225.074219 745.0625 224.351562 744.339844 224.351562 743.449219 L 224.351562 552.339844 C 224.351562 551.449219 225.074219 550.730469 225.960938 550.730469 L 253.824219 550.730469 C 254.714844 550.730469 255.4375 551.449219 255.4375 552.339844 L 255.4375 743.449219 C 255.4375 744.339844 254.714844 745.0625 253.824219 745.0625 " fill-opacity="1" fill-rule="nonzero"/><path fill="#e8923d" d="M 305.308594 745.0625 L 277.445312 745.0625 C 276.558594 745.0625 275.835938 744.339844 275.835938 743.449219 L 275.835938 552.339844 C 275.835938 551.449219 276.558594 550.730469 277.445312 550.730469 L 305.308594 550.730469 C 306.199219 550.730469 306.921875 551.449219 306.921875 552.339844 L 306.921875 743.449219 C 306.921875 744.339844 306.199219 745.0625 305.308594 745.0625 " fill-opacity="1" fill-rule="nonzero"/><path fill="#e8923d" d="M 355.820312 745.0625 L 327.960938 745.0625 C 327.070312 745.0625 326.347656 744.339844 326.347656 743.449219 L 326.347656 552.339844 C 326.347656 551.449219 327.070312 550.730469 327.960938 550.730469 L 355.820312 550.730469 C 356.710938 550.730469 357.433594 551.449219 357.433594 552.339844 L 357.433594 743.449219 C 357.433594 744.339844 356.710938 745.0625 355.820312 745.0625 " fill-opacity="1" fill-rule="nonzero"/><path fill="#f6f0e3" d="M 394.347656 544.894531 C 384.925781 550.824219 374.585938 541.964844 368.273438 536.714844 C 363.183594 532.480469 360.65625 530.578125 363.261719 540.523438 C 364.039062 543.480469 364.601562 546.355469 365.011719 549.078125 C 367.554688 566.546875 362.855469 578.324219 355.605469 570.355469 C 355.394531 570.140625 355.199219 569.910156 355.003906 569.675781 C 349.601562 563.085938 350.867188 554.808594 351.933594 547.171875 C 352.613281 542.429688 353.199219 537.921875 352.089844 534.210938 C 351.488281 532.191406 350.75 531.546875 350.03125 532.113281 C 347.332031 534.167969 344.960938 553.3125 351.117188 577.933594 C 351.78125 580.597656 352.265625 583.164062 352.578125 585.609375 C 355.917969 611.960938 340.160156 626.402344 326.835938 614.859375 C 312.261719 602.226562 324.890625 561.902344 322.460938 540.039062 C 320.035156 518.175781 314.207031 523.035156 309.347656 551.699219 C 304.492188 580.363281 270.007812 558.5 270.007812 558.5 C 270.007812 558.5 270.492188 592.023438 250.578125 591.539062 C 230.664062 591.054688 230.664062 568.703125 230.664062 568.703125 C 230.664062 568.703125 228.722656 588.621094 208.808594 582.304688 C 188.894531 575.992188 199.09375 521.578125 199.09375 521.578125 C 199.09375 521.578125 176.265625 533.722656 165.097656 509.917969 C 160.511719 500.164062 163.367188 493.242188 168.320312 488.519531 C 175.453125 481.679688 186.953125 479.308594 186.953125 479.308594 C 184.777344 470.3125 184.273438 464.230469 189.304688 456.6875 C 189.363281 456.59375 189.421875 456.515625 189.476562 456.417969 C 193.480469 450.566406 200.785156 443.804688 213.179688 434.128906 C 241.835938 411.78125 269.523438 453.5625 269.523438 453.5625 C 281.375 431.191406 298.390625 450.007812 300.410156 452.355469 C 299.089844 450.429688 290.117188 436.792969 299.226562 425.925781 C 299.539062 425.539062 299.867188 425.171875 300.257812 424.800781 C 305.328125 419.589844 314.984375 415.160156 332.175781 413.238281 C 388.519531 406.921875 378.804688 463.277344 378.804688 463.277344 C 383.660156 460.847656 396.773438 462.304688 396.773438 462.304688 C 412.316406 466.910156 419.253906 476.164062 420.960938 486.925781 C 424.519531 509.121094 405.792969 537.710938 394.347656 544.894531 " fill-opacity="1" fill-rule="nonzero"/><path fill="#f6f0e3" d="M 353.703125 555.253906 C 355.0625 560.71875 355.644531 565.769531 355.605469 570.355469 C 355.394531 570.140625 355.199219 569.910156 355.003906 569.675781 C 349.601562 563.085938 350.867188 554.808594 351.933594 547.171875 C 352.421875 549.777344 353.003906 552.476562 353.703125 555.253906 " fill-opacity="1" fill-rule="nonzero"/><path fill="#ffffff" d="M 242.808594 466.355469 C 242.808594 474.941406 235.558594 481.902344 226.617188 481.902344 C 217.675781 481.902344 210.429688 474.941406 210.429688 466.355469 C 210.429688 457.769531 217.675781 450.808594 226.617188 450.808594 C 235.558594 450.808594 242.808594 457.769531 242.808594 466.355469 " fill-opacity="1" fill-rule="nonzero"/><path fill="#ffffff" d="M 270.007812 472.183594 C 270.007812 476.476562 266.527344 479.957031 262.238281 479.957031 C 257.945312 479.957031 254.464844 476.476562 254.464844 472.183594 C 254.464844 467.890625 257.945312 464.410156 262.238281 464.410156 C 266.527344 464.410156 270.007812 467.890625 270.007812 472.183594 " fill-opacity="1" fill-rule="nonzero"/><path fill="#ffffff" d="M 249.933594 509.109375 C 249.933594 513.761719 246.164062 517.527344 241.511719 517.527344 C 236.863281 517.527344 233.09375 513.761719 233.09375 509.109375 C 233.09375 504.457031 236.863281 500.6875 241.511719 500.6875 C 246.164062 500.6875 249.933594 504.457031 249.933594 509.109375 " fill-opacity="1" fill-rule="nonzero"/><path fill="#ffffff" d="M 304.328125 512.023438 C 304.328125 520.789062 297.226562 527.894531 288.464844 527.894531 C 279.703125 527.894531 272.597656 520.789062 272.597656 512.023438 C 272.597656 503.257812 279.703125 496.152344 288.464844 496.152344 C 297.226562 496.152344 304.328125 503.257812 304.328125 512.023438 " fill-opacity="1" fill-rule="nonzero"/><path fill="#ffffff" d="M 328.9375 475.421875 C 328.9375 479 326.039062 481.902344 322.460938 481.902344 C 318.886719 481.902344 315.988281 479 315.988281 475.421875 C 315.988281 471.847656 318.886719 468.945312 322.460938 468.945312 C 326.039062 468.945312 328.9375 471.847656 328.9375 475.421875 " fill-opacity="1" fill-rule="nonzero"/><path fill="#ffffff" d="M 352.898438 444.007812 C 352.898438 451.695312 346.664062 457.933594 338.976562 457.933594 C 331.285156 457.933594 325.054688 451.695312 325.054688 444.007812 C 325.054688 436.316406 331.285156 430.082031 338.976562 430.082031 C 346.664062 430.082031 352.898438 436.316406 352.898438 444.007812 " fill-opacity="1" fill-rule="nonzero"/><path fill="#ffffff" d="M 389.164062 486.761719 C 389.164062 495.882812 381.773438 503.277344 372.652344 503.277344 C 363.53125 503.277344 356.136719 495.882812 356.136719 486.761719 C 356.136719 477.636719 363.53125 470.242188 372.652344 470.242188 C 381.773438 470.242188 389.164062 477.636719 389.164062 486.761719 " fill-opacity="1" fill-rule="nonzero"/><path fill="#ffffff" d="M 411.832031 485.464844 C 411.832031 489.9375 408.207031 493.5625 403.738281 493.5625 C 399.265625 493.5625 395.640625 489.9375 395.640625 485.464844 C 395.640625 480.992188 399.265625 477.367188 403.738281 477.367188 C 408.207031 477.367188 411.832031 480.992188 411.832031 485.464844 " fill-opacity="1" fill-rule="nonzero"/><path fill="#ffffff" d="M 343.832031 494.535156 C 343.832031 496.5 342.238281 498.09375 340.273438 498.09375 C 338.304688 498.09375 336.710938 496.5 336.710938 494.535156 C 336.710938 492.566406 338.304688 490.972656 340.273438 490.972656 C 342.238281 490.972656 343.832031 492.566406 343.832031 494.535156 " fill-opacity="1" fill-rule="nonzero"/><path fill="#ffffff" d="M 304.976562 469.269531 C 304.976562 475.53125 299.902344 480.605469 293.644531 480.605469 C 287.386719 480.605469 282.3125 475.53125 282.3125 469.269531 C 282.3125 463.007812 287.386719 457.933594 293.644531 457.933594 C 299.902344 457.933594 304.976562 463.007812 304.976562 469.269531 " fill-opacity="1" fill-rule="nonzero"/><path fill="#ffffff" d="M 321.816406 435.910156 C 321.816406 440.203125 318.335938 443.683594 314.042969 443.683594 C 309.753906 443.683594 306.273438 440.203125 306.273438 435.910156 C 306.273438 431.617188 309.753906 428.136719 314.042969 428.136719 C 318.335938 428.136719 321.816406 431.617188 321.816406 435.910156 " fill-opacity="1" fill-rule="nonzero"/><path fill="#ffffff" d="M 233.742188 531.132812 C 233.742188 537.929688 228.234375 543.441406 221.4375 543.441406 C 214.640625 543.441406 209.132812 537.929688 209.132812 531.132812 C 209.132812 524.335938 214.640625 518.824219 221.4375 518.824219 C 228.234375 518.824219 233.742188 524.335938 233.742188 531.132812 " fill-opacity="1" fill-rule="nonzero"/><path fill="#ffffff" d="M 270.65625 542.144531 C 270.65625 547.511719 266.304688 551.863281 260.941406 551.863281 C 255.574219 551.863281 251.226562 547.511719 251.226562 542.144531 C 251.226562 536.777344 255.574219 532.429688 260.941406 532.429688 C 266.304688 532.429688 270.65625 536.777344 270.65625 542.144531 " fill-opacity="1" fill-rule="nonzero"/><path fill="#ffffff" d="M 274.539062 561.578125 C 274.539062 566.945312 270.191406 571.296875 264.828125 571.296875 C 259.460938 571.296875 255.113281 566.945312 255.113281 561.578125 C 255.113281 556.210938 259.460938 551.863281 264.828125 551.863281 C 270.191406 551.863281 274.539062 556.210938 274.539062 561.578125 " fill-opacity="1" fill-rule="nonzero"/><path fill="#ffffff" d="M 198.769531 485.789062 C 198.769531 487.21875 197.613281 488.382812 196.179688 488.382812 C 194.75 488.382812 193.589844 487.21875 193.589844 485.789062 C 193.589844 484.355469 194.75 483.195312 196.179688 483.195312 C 197.613281 483.195312 198.769531 484.355469 198.769531 485.789062 " fill-opacity="1" fill-rule="nonzero"/><path fill="#f4b78e" d="M 160.683594 646.617188 C 160.683594 646.617188 148.03125 625.554688 154.632812 608.003906 C 157.1875 601.203125 165.070312 596.816406 173.960938 597.121094 C 192.089844 597.742188 225.652344 600.613281 231.371094 613.296875 C 239.277344 630.824219 229.769531 658.792969 218.367188 658.105469 C 218.367188 658.105469 235.203125 663.257812 230.457031 684.109375 C 225.714844 704.960938 219.78125 708.425781 216.441406 709.953125 C 216.441406 709.953125 232.5 730.238281 221.203125 746.585938 C 215.914062 754.242188 205.820312 758.773438 194.789062 758.984375 C 181.285156 759.242188 159.183594 757.339844 150.90625 743.234375 C 138.632812 722.324219 152.925781 704.496094 160.496094 704.097656 C 160.496094 704.097656 146.324219 699.898438 147.757812 683.769531 C 149.191406 667.644531 145.617188 653.8125 160.683594 646.617188 " fill-opacity="1" fill-rule="nonzero"/></svg>